<svg xmlns="http://www.w3.org/2000/svg" xmlns:xlink="http://www.w3.org/1999/xlink" width="948.8" height="796.497" viewBox="0 0 948.8 796.497">
  <defs>
    <radialGradient id="radial-gradient" cx="0.5" cy="0.5" r="3.7" gradientTransform="translate(0.53 12.983) scale(0.135 0.135)" gradientUnits="objectBoundingBox">
      <stop offset="0" stop-color="#37474f"/>
      <stop offset="1" stop-color="#37474f" stop-opacity="0"/>
    </radialGradient>
    <linearGradient id="linear-gradient" x1="0.5" y1="1.206" x2="0.5" y2="-0.224" gradientUnits="objectBoundingBox">
      <stop offset="0" stop-color="#f37021"/>
      <stop offset="1" stop-color="#a54a24"/>
    </linearGradient>
    <radialGradient id="radial-gradient-2" cx="0.499" cy="0.503" r="2.976" gradientTransform="translate(3.187 -50.814) scale(0.168 0.166)" gradientUnits="objectBoundingBox">
      <stop offset="0" stop-color="#37474f"/>
      <stop offset="0.037" stop-color="#37474f" stop-opacity="0.965"/>
      <stop offset="1" stop-color="#37474f" stop-opacity="0"/>
    </radialGradient>
    <linearGradient id="linear-gradient-2" x1="0.503" y1="0.581" x2="0.503" y2="-0.097" gradientUnits="objectBoundingBox">
      <stop offset="0.177" stop-color="#f5f5f5"/>
      <stop offset="1" stop-color="#bdbdbd"/>
    </linearGradient>
    <linearGradient id="linear-gradient-3" x1="0.145" y1="0.5" x2="1.524" y2="0.5" gradientUnits="objectBoundingBox">
      <stop offset="0.011" stop-color="#937963"/>
      <stop offset="1" stop-color="#4a392e"/>
    </linearGradient>
    <linearGradient id="linear-gradient-4" x1="0.499" y1="0.584" x2="0.499" y2="-0.09" xlink:href="#linear-gradient-2"/>
    <linearGradient id="linear-gradient-5" x1="-3.485" y1="3.022" x2="-3.172" y2="2.18" gradientUnits="objectBoundingBox">
      <stop offset="0" stop-color="#ecced4"/>
      <stop offset="0.144" stop-color="#d5c8ce"/>
      <stop offset="0.372" stop-color="#b0bec5"/>
      <stop offset="1" stop-color="#546e7a"/>
    </linearGradient>
    <linearGradient id="linear-gradient-7" x1="-1.882" y1="0.423" x2="-2.021" y2="-0.595" gradientUnits="objectBoundingBox">
      <stop offset="0" stop-color="#263238"/>
      <stop offset="1" stop-color="#010101"/>
    </linearGradient>
    <linearGradient id="linear-gradient-8" x1="-24.735" y1="0.272" x2="-24.735" y2="1.169" xlink:href="#linear-gradient-7"/>
    <linearGradient id="linear-gradient-9" x1="-2.502" y1="-30.97" x2="-2.502" y2="-30.075" xlink:href="#linear-gradient-7"/>
    <linearGradient id="linear-gradient-10" x1="-46.23" y1="0.272" x2="-46.23" y2="1.17" xlink:href="#linear-gradient-7"/>
    <linearGradient id="linear-gradient-11" x1="-8.079" y1="0.5" x2="-7.081" y2="0.5" xlink:href="#linear-gradient-7"/>
    <linearGradient id="linear-gradient-12" x1="-5.562" y1="0.904" x2="-5.562" y2="0.473" xlink:href="#linear-gradient-7"/>
    <linearGradient id="linear-gradient-13" x1="-4.115" y1="0.273" x2="-4.115" y2="1.17" xlink:href="#linear-gradient-7"/>
    <linearGradient id="linear-gradient-14" x1="-6.884" y1="0.272" x2="-6.884" y2="1.169" xlink:href="#linear-gradient-7"/>
    <linearGradient id="linear-gradient-15" x1="0.312" y1="-0.055" x2="0.517" y2="0.7" xlink:href="#linear-gradient-7"/>
    <linearGradient id="linear-gradient-16" x1="-8.25" y1="2.253" x2="-8.539" y2="4.916" gradientUnits="objectBoundingBox">
      <stop offset="0.036" stop-color="#b0bec5"/>
      <stop offset="1" stop-color="#546e7a"/>
    </linearGradient>
    <linearGradient id="linear-gradient-17" x1="-27.785" y1="3.343" x2="-29.025" y2="6.683" xlink:href="#linear-gradient-16"/>
    <linearGradient id="linear-gradient-18" x1="-36.21" y1="9.553" x2="-37.846" y2="19.013" xlink:href="#linear-gradient-16"/>
    <linearGradient id="linear-gradient-19" x1="-36.1" y1="9.143" x2="-37.736" y2="18.602" xlink:href="#linear-gradient-16"/>
    <linearGradient id="linear-gradient-20" x1="-36.005" y1="8.829" x2="-37.64" y2="18.288" xlink:href="#linear-gradient-16"/>
    <linearGradient id="linear-gradient-21" x1="-50.394" y1="11.443" x2="-52.658" y2="24.141" xlink:href="#linear-gradient-16"/>
    <linearGradient id="linear-gradient-22" x1="-19.944" y1="-4.335" x2="-19.422" y2="-3.384" xlink:href="#linear-gradient-16"/>
    <linearGradient id="linear-gradient-23" x1="-11.373" y1="12.203" x2="-10.598" y2="12.855" xlink:href="#linear-gradient-16"/>
    <linearGradient id="linear-gradient-24" x1="0.576" y1="0.132" x2="0.671" y2="-0.225" xlink:href="#linear-gradient-16"/>
  </defs>
  <g id="developer1" transform="translate(-881 -1671)">
    <g id="developer" transform="translate(881 1671)">
      <path id="XMLID_41_" d="M814.4,232.4a203.287,203.287,0,0,1-75.1-75.6C695.4,78.8,597.6,24.5,483.9,24.5c-154.7,0-280.1,100.6-280.1,224.6,0,3.8.1,7.6.4,11.4,3.4,54-14.8,106.6-49.4,148.2-15.4,18.5-24.2,39.8-24.2,62.5,0,71.9,88.3,130.1,197.2,130.1,37.3,0,72.1-6.8,101.8-18.7,44.9-17.9,94.3-20.2,140.3-5.4a310.726,310.726,0,0,0,94.9,14.5c139.4,0,252.3-89.1,252.3-198.9C917.1,326.9,876.7,268.7,814.4,232.4Z" fill="#ffc107" opacity="0.43"/>
      <g id="XMLID_844_">
        <ellipse id="XMLID_879_" cx="474.4" cy="64.1" rx="474.4" ry="64.1" transform="translate(0 644.4)" opacity="0.57" fill="url(#radial-gradient)"/>
        <g id="XMLID_845_">
          <g id="XMLID_875_">
            <path id="XMLID_878_" d="M796,339.8c0-.1-.1-.1-.1-.2,0,.3.1.6.1.9,0,23.2-143.3,41.9-320,41.9s-320-18.8-320-41.9a5.7,5.7,0,0,1,.4-2.2,2.994,2.994,0,0,0-.4.8c-.3.8,0,7.3,0,8.1,0,19.7,103.3,36.2,242.7,40.7-5.1,21.7-8,47.9-8,80.9,0,77.3,15.7,169,39.5,224.7a24.453,24.453,0,0,0,22.6,14.9h46.5a24.715,24.715,0,0,0,22.6-14.9c23.7-55.7,39.5-147.4,39.5-224.7,0-32.9-2.9-59.5-8-81.2C692.7,383,796,366.7,796,347,796,346.4,796.2,340.4,796,339.8Z" fill="#f37021"/>
            <path id="XMLID_877_" d="M796,339.8c0-.1-.1-.1-.1-.2,0,.3.1.6.1.9,0,23.2-143.3,41.9-320,41.9s-320-18.8-320-41.9a5.7,5.7,0,0,1,.4-2.2,2.994,2.994,0,0,0-.4.8c-.3.8,0,7.3,0,8.1,0,19.7,103.3,36.2,242.7,40.7-5.1,21.7-8,47.9-8,80.9,0,3.1,0,6.2.1,9.3L542.2,629.5a717.864,717.864,0,0,0,19.1-160.7c0-32.9-2.9-59.5-8-81.2C692.7,383,796,366.7,796,347,796,346.4,796.2,340.4,796,339.8Z" fill="url(#linear-gradient)"/>
            <path id="XMLID_876_" d="M476,382.4c176.7,0,320-18.8,320-41.9a2.769,2.769,0,0,0-.1-.9c-3.5-22.8-145.4-41.1-319.9-41.1-171.2,0-310.9,17.6-319.6,39.7a5.7,5.7,0,0,0-.4,2.2C156,363.6,299.3,382.4,476,382.4Z" fill="#faa629"/>
          </g>
          <g id="XMLID_846_">
            <g id="XMLID_865_">
              <path id="XMLID_867_" d="M579.6,357.9l-58.2-2.3,54.3-32.1,58.2,2.3Z" fill="#f5f5f5"/>
              <path id="XMLID_866_" d="M614.6,364.1l-57.4-9.9,58.1-24.8,57.4,10Z" fill="#e6e7e7"/>
            </g>
            <g id="XMLID_861_">
              <path id="XMLID_864_" d="M312.4,345.8l-58.2-2.4,54.3-32.1,58.2,2.3Z" fill="#f5f5f5"/>
              <path id="XMLID_863_" d="M347.4,351.9,290,342l58.1-24.7,57.4,9.9Z" fill="#e6e7e7"/>
              <path id="XMLID_862_" d="M398.2,367.3l-57.4-9.9,58.1-24.7,57.4,9.9Z" fill="#e6e7e7"/>
            </g>
            <g id="XMLID_854_">
              <path id="XMLID_860_" d="M481.9,367.8c0,2.4-11.5,4.3-25.6,4.3s-25.6-1.9-25.6-4.3,11.5-4.3,25.6-4.3C470.4,363.6,481.9,365.5,481.9,367.8Z" opacity="0.57" fill="url(#radial-gradient-2)"/>
              <g id="XMLID_855_">
                <path id="XMLID_859_" d="M472.3,327.9H440.4c-1.2,0-2,1.5-1.8,3l1.2,7.1c.2,1.1.9,1.9,1.8,1.9h29.6A2.12,2.12,0,0,0,473,338l1.2-7.1C474.3,329.4,473.5,327.9,472.3,327.9Z" fill="#f5f5f5"/>
                <path id="XMLID_858_" d="M444.4,363.8l.1,1.4c.2,1.6,1.2,2.9,2.4,2.9h18.7c1.2,0,2.3-1.2,2.4-2.9l.1-1.4Z" fill="url(#linear-gradient-2)"/>
                <path id="XMLID_857_" d="M440.2,343.9l2.4,19.5a.458.458,0,0,0,.5.4h26.6a.664.664,0,0,0,.5-.4l2.4-19.5a.472.472,0,0,0-.5-.5H440.7C440.3,343.4,440.1,343.6,440.2,343.9Z" fill="url(#linear-gradient-3)"/>
                <path id="XMLID_856_" d="M470.7,341H442l.2,2.4h28.2Z" fill="url(#linear-gradient-4)"/>
              </g>
            </g>
          </g>
        </g>
      </g>
      <path id="XMLID_812_" d="M691.6,182.5c11-1.4,20.7,6.4,28.6,13.7a82.346,82.346,0,0,1,25-15.4c-1.2-4.4.4-35.2.2-38.2-1.3-19.1-6.8-45.4-30.4-47.2-1.7-.1-7.1,1.1-8.1-.5-.3-.5.5-1.8.4-2.4a5.117,5.117,0,0,0-2-3.7c-9.1-7.3-22.4-6.4-33.2-5.1-12.9,1.5-23.9,7.3-33.5,16-5,4.5-9.6,10.9-2.1,14.1-2.2-.3-6.1,15.7-6.5,17.5-2.8,13.4-.5,30.8,15.4,33.7,4.7.9,10.1,2.4,11.6,6.6.7,1.9.4,3.9,1,5.8,1.2,3.9,5.9,2,7.8,5.1.5.9.6,2,1,2.9,1,2,3.7,2.5,6,2.4C679.4,187.5,685.1,183.4,691.6,182.5Z" fill="#1f1f89"/>
      <g id="XMLID_808_">
        <g id="XMLID_809_">
          <path id="XMLID_811_" d="M744.2,179.5l27.2,36.6-41.5,28.7-14.6-27.9a3.727,3.727,0,0,0-5.2-1.5l-12.2,7.1,8.7-41.3,1.7-1.5,12.8,10.2Z" fill="url(#linear-gradient-5)"/>
          <path id="XMLID_810_" d="M686.2,213.3l-28.7-76.4,10.3-4,8.9,18.3,6.7,3.6,11.7,19.9,4.1-1.5-1.6-4.8a8.237,8.237,0,0,1,4.7-10.4c.1,0,.1,0,.2-.1a8.254,8.254,0,0,1,10.2,5l2,5.3a8.258,8.258,0,0,1-4.8,10.5,5.124,5.124,0,0,0-2.8,6.6l2.7,7.1c4.2,10.9-11.1,43.6-21.8,25.3A33.81,33.81,0,0,1,686.2,213.3Z" fill="url(#linear-gradient-5)"/>
        </g>
      </g>
      <g id="XMLID_804_">
        <g id="XMLID_806_">
          <path id="XMLID_807_" d="M685.6,504.2c14.4-1.5,22.7-17.7,30.4-31.2a3.626,3.626,0,0,1,5.4-1s99,15.2,99,16.4c-2.7,46-3.5,89.9-33.1,98-57.4,15.7-186.2-17.6-209.1-9,19.3,23.8,9.9,77.4,7.4,128.9v1c-3.9,6.5,2.7,12,2.8,19.1a4.962,4.962,0,0,1-.3,1.3c-1.1,2.9-4.1,5.6-3.3,7.8v.9c0,1.4,5.2,9.7,5.2,11a3.75,3.75,0,0,1-2.8,3.6c-8.2,1.9-19.9-3.4-29.1-1.5-.1-.2.7,1,1.7-3,.1-.4-.2-.7-.2-1.2-7.3-3.9-6.2-6.9-3.9-11.4.2-1.3.4-3.2.6-4.6h0c-8.1-4.9-3.8-6.8-2.9-14.5l-.3-1.5c-9.9-48.9-27-134.8-32.3-170.9a16.509,16.509,0,0,1,13.5-18.7C594.4,513.2,668.6,506,685.6,504.2Z" fill="url(#linear-gradient-7)"/>
        </g>
        <path id="XMLID_805_" d="M518.1,781.2C538.6,767.1,556,757,558,752c.2-.6.5-1.1.7-1.6,9.5,1.2,19,2.1,28.5,3.2,2.5,9.8,7.6,28.4,3.6,32.9-4.3,4.9-20.5,5.2-31.3,3.5-11.9-1.9-14.2,4.7-26.1,6.1-7.8.9-45.7.8-42.1-6.1C493.5,785.7,517.9,781.3,518.1,781.2Z" fill="#5d4137"/>
      </g>
      <path id="XMLID_801_" d="M771.4,212.9c36.6,16.4,65.8,70.6,63,110.6C831.1,370.2,824,490.3,824,490.4c-.3,4.5.3,9.2-.8,13.7-2.9,12.4-21.9,15.3-32.3,16.4-24.4,2.7-59-8.3-81.6-19-10-4.7-9.3-8.3-10.5-19.3l-6.6-179.1c-3.6-28.5,4.2-50.1,27.5-72.7C730.9,219.7,767.5,211.2,771.4,212.9Z" fill="#fff"/>
      <g id="XMLID_791_">
        <path id="XMLID_800_" d="M717.1,619h33.7l-3.9,74.7H721Z" fill="url(#linear-gradient-8)"/>
        <path id="XMLID_799_" d="M809.1,772.2H658.9a65.128,65.128,0,0,1,39.6-13.5h71.1a65.922,65.922,0,0,1,39.5,13.5Z" fill="url(#linear-gradient-9)"/>
        <path id="XMLID_798_" d="M743.1,695.1l-2.4,62.3H727.2l-2.3-62.3Z" fill="url(#linear-gradient-10)"/>
        <g id="XMLID_792_">
          <g id="XMLID_796_">
            <path id="XMLID_797_" d="M766.8,619c7.7-1.4,15.8-2.3,23.7-3.2,9.3-1,18.9-2.1,28.3-4,34.6-7,60.8-29.2,69.9-59.4a84.5,84.5,0,0,0-.8-50c-3.8-11.7-10.3-20.3-16.6-28.5-2.4-3.2-5-6.5-7.3-9.9-5.9-8.7-14.9-25.4-9.3-39.1l-15.9-6.5c-8.2,20,1.4,41,10.9,55.2,2.6,3.9,5.3,7.4,7.9,10.8,5.9,7.7,11,14.4,13.9,23.3a66.807,66.807,0,0,1,.7,39.8c-7.3,24.1-28.5,41.8-56.9,47.5-8.8,1.8-17.6,2.8-26.9,3.8-8.1.9-16.5,1.9-24.8,3.4Z" fill="url(#linear-gradient-11)"/>
          </g>
          <ellipse id="XMLID_795_" cx="70.5" cy="27.4" rx="70.5" ry="27.4" transform="translate(665.6 584.6)" fill="url(#linear-gradient-12)"/>
          <path id="XMLID_794_" d="M643.5,592.7c0,11.6,41.5,20.9,92.6,20.9,51.2,0,92.6-9.4,92.6-20.9,0-11.6-41.5-8.1-92.6-8.1C684.9,584.6,643.5,581.1,643.5,592.7Z" fill="url(#linear-gradient-13)"/>
          <path id="XMLID_793_" d="M773.3,401.6c-9.1,26.3,15.3,47.7,54.5,47.7s78.3-21.3,87.4-47.7c9.1-26.3-15.3-47.7-54.5-47.7S782.4,375.3,773.3,401.6Z" fill="url(#linear-gradient-14)"/>
        </g>
      </g>
      <g id="XMLID_787_">
        <g id="XMLID_789_">
          <path id="XMLID_790_" d="M701.4,495.3c-4.4,4.8-9.5,8.2-15.8,8.9-7.3.8-25.2,2.5-47.9,5.1-17.2-15.5-31-26.9-38-28.7,1.8,10.4,0,21.7-4.1,33.8-8.9,26.3-28.5,56.1-45.1,86.9-.2.3-.3.6-.5.9-6,3.6-2.9,12.4-5.9,18.9a3.915,3.915,0,0,1-.8,1c-2.1,2-5.8,2.7-6.1,5.1a5.932,5.932,0,0,1-.4.8,11.137,11.137,0,0,0-.2,3.1c0,3.6.3,9-.1,9.9a3.021,3.021,0,0,1-3.9,1.6c-7.5-3.1-16.3-10.7-24.6-14.5.3,0,2.5-4.1,3.8-5.7a3.5,3.5,0,0,0,.3-1.2c-4.3-7.8-2.2-9.9,1.7-12.5.7-1.1,1.7-2.7,2.5-3.8-4.6-9.2-.2-8.3,3.8-14.8a8.328,8.328,0,0,1,.4-1.5c1.5-5.8,3.1-12.1,4.8-18.8,3.7-14.3,7.8-30.3,12.1-46.6,10.9-41.7,22.6-85.3,29.7-108,2.8-8.8,11.3-12.8,19.2-9,36.3,17.3,82.5,46.2,112.3,64.6l.4,11.4C699.6,488.5,699.6,492.3,701.4,495.3Z" fill="url(#linear-gradient-15)"/>
        </g>
        <path id="XMLID_788_" d="M457,640.8c24.5-3.9,44.6-5.6,48.5-9.2a12.662,12.662,0,0,1,1.3-1.1c8.1,5.1,16.3,10,24.4,15.1-2,9.9-5.4,28.9-10.9,31.3-6,2.5-20.8-4.1-29.8-10.3-9.9-6.9-14.9-1.9-26.2-5.7-7.4-2.5-41.6-18.8-35.4-23.6C432.8,634.3,456.7,640.8,457,640.8Z" fill="#5d4137"/>
      </g>
      <g id="XMLID_727_">
        <path id="XMLID_786_" d="M519.8,337.7h113l-30.1-105a7.233,7.233,0,0,0-7-5.1H489.8a7.06,7.06,0,0,0-7,8.9l26.9,93.9A10.6,10.6,0,0,0,519.8,337.7Z" fill="#a1a5c5"/>
        <path id="XMLID_785_" d="M526.1,335.3h113L609,230.3a7.233,7.233,0,0,0-7-5.1H496.1a7.06,7.06,0,0,0-7,8.9L516,328A10.478,10.478,0,0,0,526.1,335.3Z" fill="#2e2e3c"/>
        <path id="XMLID_784_" d="M495.2,238.2l26.6,92.5h112l-1.5-5.4-26.1-90.6a6.781,6.781,0,0,0-6.5-4.8H501.6A6.544,6.544,0,0,0,495.2,238.2Z" fill="#305891"/>
        <g id="XMLID_38_">
          <g id="XMLID_778_">
            <path id="XMLID_783_" d="M561.2,240.3h34.5l-.8-2.3H560.4Z" fill="#edeef0"/>
            <path id="XMLID_782_" d="M529.9,240.3h16.3l-.7-2.3H529.2Z" fill="#de3b3a"/>
            <path id="XMLID_781_" d="M506.3,240.3h16.4l-.8-2.3H505.6Z" fill="#9f9bad"/>
            <path id="XMLID_780_" d="M524.6,240.3h3.9l-.8-2.3h-3.9Z" fill="#7996cd"/>
            <path id="XMLID_779_" d="M548.1,240.3h11.5l-.8-2.3H547.4Z" fill="#9f9bad"/>
          </g>
          <g id="XMLID_772_">
            <path id="XMLID_777_" d="M580.9,300.3h34.4l-.7-2.4H580.1Z" fill="#7996cd"/>
            <path id="XMLID_776_" d="M549.6,300.3h16.3l-.8-2.4H548.8Z" fill="#9f9bad"/>
            <path id="XMLID_775_" d="M526,300.3h16.3l-.7-2.4H525.2Z" fill="#ecac53"/>
            <path id="XMLID_774_" d="M544.3,300.3h3.8l-.7-2.4h-3.9Z" fill="#7996cd"/>
            <path id="XMLID_773_" d="M567.8,300.3h11.4l-.7-2.4H567Z" fill="#9f9bad"/>
          </g>
          <g id="XMLID_768_">
            <path id="XMLID_771_" d="M585.2,280.3H568.9l-.8-2.3h16.3Z" fill="#c8c8cd"/>
            <path id="XMLID_770_" d="M608.8,280.3H592.5l-.8-2.3H608Z" fill="#ecac53"/>
            <path id="XMLID_769_" d="M590.5,280.3h-3.8l-.8-2.3h3.9Z" fill="#7996cd"/>
          </g>
          <g id="XMLID_762_">
            <path id="XMLID_767_" d="M586,250.3h13l-.8-2.3H585.3Z" fill="#de3b3a"/>
            <path id="XMLID_766_" d="M554.7,250.3h5.6l-.8-2.3H554Z" fill="#7996cd"/>
            <path id="XMLID_765_" d="M509.6,250.3h27.1L536,248H508.9Z" fill="#de3b3a"/>
            <path id="XMLID_764_" d="M538.7,250.3h14.6l-.8-2.3H537.9Z" fill="#7996cd"/>
            <path id="XMLID_763_" d="M562.2,250.3h22.2l-.8-2.3H561.4Z" fill="#7996cd"/>
          </g>
          <g id="XMLID_756_">
            <path id="XMLID_761_" d="M605.7,310.3h12.9l-.7-2.4h-13Z" fill="#2d3969"/>
            <path id="XMLID_760_" d="M574.4,310.3H580l-.8-2.4h-5.6Z" fill="#2d3969"/>
            <path id="XMLID_759_" d="M529.3,310.3h27.1l-.8-2.4H528.5Z" fill="#7996cd"/>
            <path id="XMLID_758_" d="M558.3,310.3H573l-.8-2.4H557.5Z" fill="#7996cd"/>
            <path id="XMLID_757_" d="M581.8,310.3h22.3l-.8-2.4H581.1Z" fill="#7996cd"/>
          </g>
          <g id="XMLID_750_">
            <path id="XMLID_755_" d="M599.1,290.3h13l-.8-2.4H598.4Z" fill="#edeef0"/>
            <path id="XMLID_754_" d="M567.9,290.3h5.5l-.8-2.4h-5.5Z" fill="#7996cd"/>
            <path id="XMLID_753_" d="M522.7,290.3h27.1l-.7-2.4H522Z" fill="#9f9bad"/>
            <path id="XMLID_752_" d="M551.8,290.3h14.6l-.8-2.4H551Z" fill="#7996cd"/>
            <path id="XMLID_751_" d="M575.3,290.3h22.2l-.7-2.4H574.5Z" fill="#de3b3a"/>
          </g>
          <g id="XMLID_746_">
            <path id="XMLID_749_" d="M589.3,260.3h12.9l-.7-2.3h-13Z" fill="#c8c8cd"/>
            <path id="XMLID_748_" d="M568.2,260.3h12.9l-.7-2.3h-13Z" fill="#c8c8cd"/>
            <path id="XMLID_747_" d="M516.5,260.3h22.2l-.8-2.3H515.7Z" fill="#7996cd"/>
          </g>
          <g id="XMLID_744_">
            <path id="XMLID_745_" d="M605.5,270.3H583.3l-.8-2.3h22.2Z" fill="#7996cd"/>
          </g>
          <g id="XMLID_742_">
            <path id="XMLID_743_" d="M571.3,270.3H549l-.7-2.3h22.2Z" fill="#7996cd"/>
          </g>
          <g id="XMLID_39_">
            <path id="XMLID_40_" d="M541.4,270.3H519.2l-.8-2.3h22.2Z" fill="#edeef0"/>
          </g>
        </g>
        <g id="XMLID_35_">
          <path id="XMLID_36_" d="M577.6,335.5H715.2a5.7,5.7,0,0,0,5.8-5.6h0a5.7,5.7,0,0,0-5.8-5.6H577.6a5.7,5.7,0,0,0-5.8,5.6h0A5.7,5.7,0,0,0,577.6,335.5Z" fill="#807c88"/>
        </g>
        <g id="XMLID_728_">
          <g id="XMLID_33_">
            <path id="XMLID_34_" d="M525.4,335.1H605a5.7,5.7,0,0,0,5.8-5.6h0a5.7,5.7,0,0,0-5.8-5.6H525.4a5.7,5.7,0,0,0-5.8,5.6h0A5.7,5.7,0,0,0,525.4,335.1Z" fill="#e1e1e1"/>
          </g>
          <g id="XMLID_729_">
            <rect id="XMLID_733_" width="10.2" height="5.5" transform="translate(579.346 333.172) rotate(180)" fill="#807c88" opacity="0.37"/>
            <rect id="XMLID_732_" width="10.2" height="5.5" transform="translate(563.92 333.172) rotate(180)" fill="#807c88" opacity="0.37"/>
            <rect id="XMLID_731_" width="10.5" height="3.3" transform="translate(561.133 330.805) rotate(180)" fill="#12143f"/>
            <rect id="XMLID_730_" width="8.2" height="3.3" transform="translate(577.101 330.805) rotate(180)" fill="#fff"/>
          </g>
        </g>
      </g>
      <g id="XMLID_24_">
        <g id="XMLID_26_">
          <path id="XMLID_32_" d="M742.4,321.6,650.5,319a2.14,2.14,0,0,0-2.1,1.7l-2,9.1a2.172,2.172,0,0,0,1.4,2.5L720.2,355A20.059,20.059,0,0,0,746,332.8l-1.5-9.5A2.158,2.158,0,0,0,742.4,321.6Z" fill="url(#linear-gradient-16)"/>
          <path id="XMLID_31_" d="M638.4,302.2c-1.9-2.7-4.4-5.5-7.7-5.6a7.412,7.412,0,0,0-5.6,2.9,22.659,22.659,0,0,0-3.2,5.7c-1.6,3.6,15.3,28.2,24.1,26.6,2.7-.5,2.2-3.2,3.1-5.8C652,318,643.5,309.1,638.4,302.2Z" fill="url(#linear-gradient-17)"/>
          <path id="XMLID_30_" d="M632.7,299.7a2.226,2.226,0,0,0-.8-3.4c-4.9-1.9-15.3.1-18.3,2.6-2,1.7-2.1,7.1-.1,9.1,2.4-.9.9-3.6,2-5.3.9-1.5,2.6-1.1,4.4-1.1C624.2,301.5,629.5,303.9,632.7,299.7Z" fill="url(#linear-gradient-18)"/>
          <path id="XMLID_29_" d="M634.1,305.9a2.226,2.226,0,0,0-.8-3.4c-4.9-1.9-15.3.1-18.3,2.6-2,1.7-2.1,7.1-.1,9.1,2.4-.9.9-3.6,2-5.3.9-1.5,2.6-1.1,4.4-1.1C625.6,307.6,630.9,310,634.1,305.9Z" fill="url(#linear-gradient-19)"/>
          <path id="XMLID_28_" d="M635.1,310.7a2.226,2.226,0,0,0-.8-3.4c-4.9-1.9-15.3.1-18.3,2.6-2,1.7-2.1,7.1-.1,9.1,2.4-.9.9-3.6,2-5.3.9-1.5,2.6-1.1,4.4-1.1C626.6,312.5,631.8,314.9,635.1,310.7Z" fill="url(#linear-gradient-20)"/>
          <path id="XMLID_27_" d="M632.2,315.3a2.115,2.115,0,0,0-.9-3.8c-3.9-.7-10.2.6-12.2,2.3-1.5,1.3-1.5,5.3-.1,6.7,1.8-.7.7-2.7,1.5-3.9.7-1.1,1.9-.8,3.3-.8C626.6,315.6,629.9,316.9,632.2,315.3Z" fill="url(#linear-gradient-21)"/>
        </g>
        <path id="XMLID_25_" d="M641,306.1c-7.1-7-6.7.9-20.6-7.1a2.114,2.114,0,0,0-2.6,3.3c2.2,2.2,5.4,4.3,6.5,5.5,2.2,2.5,1.8,6.9,4.4,9.4,2.4,2.4,5.4,2.7,8.5,2.5,1.4-.1,3.2-.4,4.4.3" fill="url(#linear-gradient-22)"/>
      </g>
      <path id="XMLID_23_" d="M527.5,368.4c-12.7-.9-25.4-1.3-38.1.7a7.942,7.942,0,0,0-.1,2.2c.4,4.6,4.7,7.8,8.6,10.3,10.2,6.4,25.5,14.7,34.4,12.7,3.7-.9,7.3-1.2,7.8-5C541.2,379.5,534,371.9,527.5,368.4Z" fill="#b0bec5"/>
      <path id="XMLID_22_" d="M486.8,367.1h0l-6.3-82.6h0c-.7,0-1.3.8-1.2,1.9l6,78.8C485.4,366.2,486,367.1,486.8,367.1Z" fill="#71457f"/>
      <path id="XMLID_21_" d="M486.8,367.1h36.7l-6.3-82.5-36.7-.1Z" fill="#5e3369"/>
      <path id="XMLID_20_" d="M487.8,358h33.3l-5.4-70.5-33.3-.1Z" fill="#e1f3f7"/>
      <path id="XMLID_19_" d="M495.6,373.4c-5.6-11.4,5.2-6.5-1.5-31,5.5-2.9,7.9,9.9,9.7,13,2,3.4,7,4.6,8.9,8.4,1.8,3.5.9,7-.4,10.4-.6,1.5-1.6,3.4-1.3,5.1" fill="url(#linear-gradient-23)"/>
      <path id="XMLID_18_" d="M682.2,334.4l-35.4,58.9L535.4,379.8,514,390.3S615.8,426,667.7,441.8l57.8-74.2Z" fill="url(#linear-gradient-24)"/>
      <path id="XMLID_15_" d="M722.7,274.4c10.7,1.1,21.6,6,29.8,11.4,8.9,5.9,15.7,16.1,14.3,26.7-.6,4.9-2.9,9.4-5.3,13.7A241.7,241.7,0,0,1,729,371.5a240.958,240.958,0,0,1-41.6-26.3c-3.2-2.4-6.4-5.1-7.8-8.9-1.3-3.8.1-8.8,4-9.9-2,.6,3.2-25.2,3.8-27,3.1-8.6,7-16.4,15.1-21.2C708.6,274.6,715.6,273.7,722.7,274.4Z" fill="#fffef9"/>
      <path id="XMLID_577_" d="M335.7,101.3h0a34.932,34.932,0,0,0-34.9,34.9h0a34.932,34.932,0,0,0,34.9,34.9h0a34.932,34.932,0,0,0,34.9-34.9h0A35,35,0,0,0,335.7,101.3Z" fill="#0a5de2"/>
      <g id="XMLID_13_">
        <circle id="XMLID_576_" cx="9.8" cy="9.8" r="9.8" transform="translate(325.9 126.3)" fill="#f7f5ef"/>
        <path id="XMLID_573_" d="M355.7,119.5a3.372,3.372,0,0,0-3.4-3.4,3.5,3.5,0,0,0-2.2.8,24.531,24.531,0,1,0,4.6,4.7,2.512,2.512,0,0,0,1-2.1Zm-20,39.9a23.251,23.251,0,0,1-.3-46.5,23.72,23.72,0,0,1,14.3,4.6,3.292,3.292,0,0,0-.6,1.9,3.372,3.372,0,0,0,3.4,3.4,3.077,3.077,0,0,0,1.9-.6,23.3,23.3,0,0,1-18.7,37.2Z" fill="#f7f5ef"/>
      </g>
      <g id="XMLID_562_">
        <path id="XMLID_12_" d="M423.2,190.7h0a40.219,40.219,0,0,0-46.5,32.6h0a40.219,40.219,0,0,0,32.6,46.5h0a40.219,40.219,0,0,0,46.5-32.6h0A40.167,40.167,0,0,0,423.2,190.7Z" fill="#5cc1a4"/>
        <path id="XMLID_563_" d="M401,241.7a2.021,2.021,0,0,0,1.7,2.6l2.2.4-1.6,7.6a3.314,3.314,0,1,0,6.5,1.3l1.6-7.6,4.4.9-1.6,7.6a3.314,3.314,0,1,0,6.5,1.3l1.6-7.6,2.2.4a2.021,2.021,0,0,0,2.6-1.7l4.4-21.8-26.2-5.3Zm-1.1-22.9a3.375,3.375,0,0,0-3.9,2.6l-3.1,15.3a3.314,3.314,0,1,0,6.5,1.3l3.1-15.3a3.347,3.347,0,0,0-2.6-3.9Zm37.1,7.6a3.375,3.375,0,0,0-3.9,2.6L430,244.3a3.314,3.314,0,0,0,6.5,1.3l3.1-15.3a3.458,3.458,0,0,0-2.6-3.9Zm-8.3-14.9,3.4-2.3a1.082,1.082,0,0,0-1.2-1.8L427,210a10.265,10.265,0,0,0-5.4-2.7,14.354,14.354,0,0,0-6.2.1l-2.4-3.9a1.235,1.235,0,0,0-2.1,1.3l2.3,3.4a13.742,13.742,0,0,0-7.4,9.4l26.2,5.3a12.723,12.723,0,0,0-3.3-11.4Zm-13.3,3.7-2.2-.4.4-2.2,2.2.4Zm10.9,2.2-2.2-.4.4-2.2,2.2.4Zm0,0" fill="#f7f5ef"/>
      </g>
      <path id="XMLID_561_" d="M593.2,0h0a39.776,39.776,0,0,0-39.8,39.8h0a39.776,39.776,0,0,0,39.8,39.8h0A39.776,39.776,0,0,0,633,39.8h0A39.776,39.776,0,0,0,593.2,0Z" fill="#f75873"/>
      <g id="XMLID_554_">
        <g id="Group_1" data-name="Group 1">
          <path id="XMLID_61_" d="M617,39.8v11a4.49,4.49,0,0,1-2.4,4.2c-6.4,3.6-12.7,7.3-19.1,11a4.428,4.428,0,0,1-4.7,0c-2.1-1.2-4.1-2.4-6.2-3.7-.2-.1-.6-.3-.6-.6s.4-.3.7-.4a15.956,15.956,0,0,0,2.3-1,1.217,1.217,0,0,1,1.3,0c1.4.9,2.8,1.7,4.2,2.5a1.2,1.2,0,0,0,1.4,0L612.8,52a1.287,1.287,0,0,0,.8-1.3V29a1.287,1.287,0,0,0-.8-1.3c-6.3-3.6-12.6-7.3-18.9-10.9a1.051,1.051,0,0,0-1.3,0c-6.3,3.7-12.6,7.3-19,11a1.213,1.213,0,0,0-.7,1.2V50.8a1.081,1.081,0,0,0,.7,1.1c1.6.9,3.1,1.9,4.7,2.8a4.078,4.078,0,0,0,2.8.7,2.477,2.477,0,0,0,2.2-2.7V31c0-1,.1-1.1,1.2-1.1h1.6c.7,0,.9.3.9.9V52.6a9.737,9.737,0,0,1-.2,2.4c-.7,2.9-3.2,4.4-6.5,4.1a10.587,10.587,0,0,1-4-1.4c-1.5-.8-3-1.7-4.5-2.6a4.443,4.443,0,0,1-2.4-4.1V28.9a4.443,4.443,0,0,1,2.4-4.1c6.4-3.7,12.8-7.4,19.1-11a4.427,4.427,0,0,1,4.7,0c6.4,3.7,12.8,7.4,19.3,11.1a4.385,4.385,0,0,1,2.3,4C617,32.4,617,36.1,617,39.8Z" fill="#f7f5ef"/>
          <path id="XMLID_60_" d="M599.3,51a17.255,17.255,0,0,1-5.6-.8,6.4,6.4,0,0,1-4.8-5.8c-.1-1,.1-1.3,1.1-1.3h.4c1.9,0,1.9,0,2.5,1.7a3.477,3.477,0,0,0,2.8,2.3,16.521,16.521,0,0,0,7,0,2.869,2.869,0,0,0,2.5-2.2,1.88,1.88,0,0,0-1.3-2.4,14.406,14.406,0,0,0-4.5-.9,31.172,31.172,0,0,1-5.2-.8,5.638,5.638,0,0,1-1.2-.4,4.811,4.811,0,0,1-3.4-4.4,5.631,5.631,0,0,1,2.5-5.3c2.4-1.6,5.1-1.7,7.8-1.6a13.477,13.477,0,0,1,4.9,1.1,6.616,6.616,0,0,1,3.6,5.5c.1.5-.2.8-.7.8h-2.3c-.4,0-.6-.3-.7-.7a4.085,4.085,0,0,0-4.1-3.3,15.493,15.493,0,0,0-4.8.2,2.439,2.439,0,0,0-2.2,2.2,1.441,1.441,0,0,0,1.2,1.8,23.916,23.916,0,0,0,4.5.9,31.364,31.364,0,0,1,6.1,1.2c2.1.7,3.6,1.9,3.8,4.2.3,2.6-.5,4.7-2.8,6C604.1,50.7,601.6,50.9,599.3,51Z" fill="#f7f5ef"/>
        </g>
      </g>
      <g id="XMLID_548_">
        <path id="XMLID_553_" d="M483,56.2h0a39.989,39.989,0,0,0-40,40h0a39.989,39.989,0,0,0,40,40h0a39.989,39.989,0,0,0,40-40h0A39.989,39.989,0,0,0,483,56.2Z" fill="#f76d59"/>
        <g id="XMLID_549_">
          <path id="XMLID_552_" d="M483.3,73.6,459.9,98.2v22l23.4-23.4,23.3-23.2H483.3Z" fill="#f7f5ef"/>
          <path id="XMLID_551_" d="M459.9,120.2l23.4-23.4,23.3,23.4Z" fill="#f7f5ef"/>
          <path id="XMLID_550_" d="M459.9,73.6h23.4L459.9,98.2Z" fill="#f7f5ef"/>
        </g>
      </g>
      <g id="XMLID_534_">
        <path id="XMLID_547_" d="M577.6,138.5h0A26.546,26.546,0,0,0,551.1,165h0a26.546,26.546,0,0,0,26.5,26.5h0A26.546,26.546,0,0,0,604.1,165h0A26.418,26.418,0,0,0,577.6,138.5Z" fill="#6d58a4"/>
        <g id="XMLID_535_">
          <path id="XMLID_544_" d="M577.6,147.4l17.7,5-2.8,23.3-14.9,7.1-14.9-7.1-2.8-23.3Z" fill="#f7f5ef"/>
          <path id="XMLID_541_" d="M577.6,149.1,562,153.7l2.7,20.9,12.9,6V149.1Z" fill="#f7f5ef"/>
          <path id="XMLID_538_" d="M577.6,149.1l15.6,4.6-2.7,20.9-12.9,6V149.1Z" fill="#f7f5ef"/>
          <path id="XMLID_537_" d="M577.6,149.8l11.7,24h-3.9l-2.5-5.7h-5.3V165h3.9l-3.9-8.5Z" fill="#6d58a4"/>
          <path id="XMLID_536_" d="M577.6,149.8l-11.7,24h3.9l2.5-5.7h5.3V165h-3.9l3.9-8.5Z" fill="#6d58a4"/>
        </g>
      </g>
      <path id="XMLID_2_" d="M496.5,327a1.221,1.221,0,0,0,1.3,1.1l1.2-.1.3,4.1a1.756,1.756,0,1,0,3.5-.3l-.3-4.1,2.3-.2.3,4.1a1.756,1.756,0,0,0,3.5-.3l-.3-4.1,1.2-.1a1.221,1.221,0,0,0,1.1-1.3l-.8-11.7-14.1,1Zm-3.8-11.5a1.846,1.846,0,0,0-1.6,1.9l.6,8.2a1.756,1.756,0,1,0,3.5-.3l-.6-8.2a1.846,1.846,0,0,0-1.9-1.6Zm20-1.4a1.846,1.846,0,0,0-1.6,1.9l.6,8.2a1.756,1.756,0,1,0,3.5-.3l-.6-8.2a1.846,1.846,0,0,0-1.9-1.6Zm-6.4-6.4,1.4-1.6a.57.57,0,0,0-.9-.7l-1.6,1.9a5.256,5.256,0,0,0-3.1-.6,7.5,7.5,0,0,0-3.1.9l-1.8-1.6a.64.64,0,0,0-.8,1l1.6,1.4a6.917,6.917,0,0,0-2.4,5.8l14.1-1a7.029,7.029,0,0,0-3.4-5.5Zm-6.2,3.7-1.2.1-.1-1.2,1.2-.1Zm5.8-.4-1.2.1-.1-1.2,1.2-.1Zm0,0" fill="#5cc1a4"/>
      <g id="XMLID_231_">
        <path id="XMLID_482_" d="M236.7,690.6l13,88.9s10.3,13.9,49.2,13.9,49.2-13.9,49.2-13.9l13-88.9Z" fill="#0c67a8"/>
        <path id="XMLID_480_" d="M299,739c22.9,0,43.3-2.9,56.2-7.4l5.8-39.7H236.9l5.8,39.7C255.7,736.1,276,739,299,739Z" fill="#1e3f72"/>
        <path id="XMLID_479_" d="M369.9,711.1c0,10.4-31.7,18.8-70.9,18.8s-70.9-8.4-70.9-18.8l-3.4-28.3H373.3Z" fill="#0c67a8"/>
        <ellipse id="XMLID_478_" cx="74.3" cy="19.7" rx="74.3" ry="19.7" transform="translate(224.7 663.1)" fill="#4391b5"/>
        <ellipse id="XMLID_477_" cx="66.5" cy="14.9" rx="66.5" ry="14.9" transform="translate(232.5 667.5)" fill="#1c538c"/>
        <path id="XMLID_476_" d="M235.5,686.9c8.5-6,33.6-10.4,63.4-10.4s54.9,4.4,63.4,10.4q3-2.1,3-4.5c0-8.2-29.8-14.9-66.5-14.9s-66.5,6.7-66.5,14.9C232.5,684,233.6,685.5,235.5,686.9Z" fill="#0d2644"/>
        <g id="XMLID_455_">
          <path id="XMLID_474_" d="M351.3,564.4c4.8-17.3-1-30.9-7.4-46.3-6.3-15.4-7.4-31.7-5-47.9,3.2-22,10.5-43.2,2.1-64.5-7.9-20.1-15.5-46.6-37.3-55.1-21.2-9-37.2,11.8-36.8,31s11.3,36.6,5.8,55.5c-4.1,15.5-9.6,33.9-1.5,48.8,9.7,18.4,27.8,31.4,21,53.8-2.7,8-7,14.8-7.9,22.9-1.1,12.2,5.1,15.2,10.6,24.9,23.3,40.9-19.4,57.4-2.6,102.4a2.994,2.994,0,0,0,3,2h0a3.1,3.1,0,0,0,2.9-2.7c5.3-50.3,41.2-32.9,41.5-73.7.1-7.6-2.3-15.2-1.4-22.8C339.5,581.3,348.5,575.3,351.3,564.4Z" fill="#3f862a"/>
          <path id="XMLID_473_" d="M303.7,579.6s2,23,18.8,25.9" fill="none" stroke="#3de06e" stroke-linecap="round" stroke-linejoin="round" stroke-miterlimit="10" stroke-width="1"/>
          <path id="XMLID_472_" d="M287.7,468.2s1.2,25.7,22.8,32.7" fill="none" stroke="#3de06e" stroke-linecap="round" stroke-linejoin="round" stroke-miterlimit="10" stroke-width="1"/>
          <path id="XMLID_469_" d="M335.6,433.3s-1,26.8-22,30.8" fill="none" stroke="#3de06e" stroke-linecap="round" stroke-linejoin="round" stroke-miterlimit="10" stroke-width="1"/>
          <path id="XMLID_468_" d="M335,516.8s5,29.3-12,36.7" fill="none" stroke="#3de06e" stroke-linecap="round" stroke-linejoin="round" stroke-miterlimit="10" stroke-width="1"/>
          <path id="XMLID_467_" d="M330.5,615.2s0,26.6-26.8,29.3" fill="none" stroke="#3de06e" stroke-linecap="round" stroke-linejoin="round" stroke-miterlimit="10" stroke-width="1"/>
          <path id="XMLID_464_" d="M297.1,396.1s2,26.9,18,31.4" fill="none" stroke="#3de06e" stroke-linecap="round" stroke-linejoin="round" stroke-miterlimit="10" stroke-width="1"/>
          <path id="XMLID_462_" d="M299,377.5c18.5,18.3,16.9,59.6,15.6,78.8-1.2,13.9-8.6,46.3,0,69.8,9,24.9,17.2,51.5,6.9,85.7-7.2,23.9-30.6,35.5-25.9,79.2" fill="none" stroke="#3de06e" stroke-linecap="round" stroke-linejoin="round" stroke-miterlimit="10" stroke-width="1"/>
          <path id="XMLID_456_" d="M339.8,613.4c0,.8.1,1.5.1,2.3-.2,26.7-15.8,28.5-27.9,40.7,1.4-7.1,1.8-16,6.5-21.8,5.2-5.8,12.2-7,17.4-14A28.739,28.739,0,0,0,339.8,613.4Zm4.1-95.3c-6.3-15.4-7.4-31.7-5-47.9.2-1.6.5-3.2.8-4.8a33.944,33.944,0,0,0-18.8,17.7c-11.8,25-2.5,41.9,7.6,60.8,8.3,15.4,2.9,29.7,4.7,45.9.7,6.8,3.7,12.1,6,17.2-.6-4.7-1.3-9.4-.7-14.1,1.1-11.6,10.1-17.6,12.8-28.6C356.1,547.1,350.3,533.5,343.9,518.1ZM300,648.9c-1.6-3.5-3.6-7.4-4-11.2-5.3,13.9-11.2,28.3-4.9,48.7,0,.1,0,.1.1.2.4,1.2.8,2.3,1.2,3.5l.3.6a.1.1,0,0,0,.1.1,1.2,1.2,0,0,0,.5.5h0a2.7,2.7,0,0,0,2.1.7h0a2.452,2.452,0,0,0,1.6-.6,2.954,2.954,0,0,0,1.2-1.9v-.2a71.633,71.633,0,0,1,4.2-18.4c-1.1.7-2.2,1.4-3.4,2.1C302.7,664.9,305.2,660.1,300,648.9Z" fill="#3de06e" opacity="0.75"/>
        </g>
        <g id="XMLID_440_">
          <path id="XMLID_454_" d="M406.1,555.4c-10.5-19.2-10.4-31.9-9.3-52.3,1.2-20.9-5.2-48.8-30.8-53.5-19.2-3.5-34.8,4.3-41.9,19.4-11.8,25-2.5,41.9,7.6,60.8,8.3,15.4,2.9,29.7,4.7,45.9,1.7,16.3,16.3,23.8,4.1,40.7-5.2,7-12.2,8.1-17.4,14-5.2,6.4-5.1,16.4-7,23.8-4.7,18.7-23,16.1-23.8,35.1-.1,1.4,1.1,2.8,2.1,2.8s1.8.1,2.5-1.1c4.3-7.6,11.4-6.5,19.4-10,5.9-2.6,7.7-9.9,21.9-11.6,18.6-2.2,35.5,9.9,44.8-15.1,3.5-8.7,2.3-16.3,4.1-25,1.7-11.6,9.3-18.6,16.9-26.7C417.1,587.4,415.4,572.3,406.1,555.4Z" fill="#3f862a"/>
          <g id="XMLID_442_">
            <path id="XMLID_453_" d="M340,495.7s12.2,21.6,29.3,23.1" fill="none" stroke="#3de06e" stroke-linecap="round" stroke-linejoin="round" stroke-miterlimit="10" stroke-width="1"/>
            <path id="XMLID_451_" d="M352.8,562.7s-.9,38.9,11.5,47.1" fill="none" stroke="#3de06e" stroke-linecap="round" stroke-linejoin="round" stroke-miterlimit="10" stroke-width="1"/>
            <path id="XMLID_450_" d="M393.2,536.6s-1.4,33.4-22.4,39.3" fill="none" stroke="#3de06e" stroke-linecap="round" stroke-linejoin="round" stroke-miterlimit="10" stroke-width="1"/>
            <path id="XMLID_449_" d="M376.1,632.4s-10.7,32.2-41.1,27" fill="none" stroke="#3de06e" stroke-linecap="round" stroke-linejoin="round" stroke-miterlimit="10" stroke-width="1"/>
            <path id="XMLID_446_" d="M371.7,465.9s8.8,25.4-4.4,37.4" fill="none" stroke="#3de06e" stroke-linecap="round" stroke-linejoin="round" stroke-miterlimit="10" stroke-width="1"/>
            <path id="XMLID_444_" d="M294.4,690.3c2.8-10.5,18.3-14.3,22.7-17.2,49.2-32,68.4-93.9,44.1-198.8" fill="none" stroke="#3de06e" stroke-linecap="round" stroke-linejoin="round" stroke-miterlimit="10" stroke-width="1"/>
          </g>
          <path id="XMLID_441_" d="M292.1,689.4c-.1,1.4,1.1,2.8,2.1,2.8h.2c3.1-2.4-.8-5.7,3.9-16.8C294.9,678.5,292.4,682.6,292.1,689.4Z" fill="#17cabc" opacity="0.75"/>
        </g>
        <g id="XMLID_359_">
          <path id="XMLID_439_" d="M295.6,643.3c-5.8-12.4-.3-28.3-6-37.4-6.9-11.3-18.6-2.7-32-18.3-11.3-13-3.2-31.1-28.9-44.6-7.9-4.1-17-2.1-20,6.8-3.7,8.3,2.1,20.3,4.9,28.3,2.6,6.8,5.8,11.9,4.5,19.5,0,.1,0,.2-.1.2-1.5,5.8-5.3,8.9-3.3,15.8,4.3,16.7,27.9,15.2,39.8,25.6,8.4,7.3.8,16.1,9.1,27.2,8.2,11,12.3-1,27,25.1a1.939,1.939,0,0,0,2.7.7h0a2.006,2.006,0,0,0,1-1.8C292,662.2,304.1,661.6,295.6,643.3Z" fill="#3f862a"/>
          <g id="XMLID_429_">
            <path id="XMLID_438_" d="M216.5,563s1.4,12.9,13.6,16.9" fill="none" stroke="#3de06e" stroke-linecap="round" stroke-linejoin="round" stroke-miterlimit="10" stroke-width="1"/>
            <path id="XMLID_437_" d="M223.3,599.5s12.2,14.1,27.4,8.5" fill="none" stroke="#3de06e" stroke-linecap="round" stroke-linejoin="round" stroke-miterlimit="10" stroke-width="1"/>
            <path id="XMLID_436_" d="M268.6,600.3s9.2,15.2,2.4,22.3" fill="none" stroke="#3de06e" stroke-linecap="round" stroke-linejoin="round" stroke-miterlimit="10" stroke-width="1"/>
            <path id="XMLID_435_" d="M282.8,629.1s5.5,18.8-4,25.7" fill="none" stroke="#3de06e" stroke-linecap="round" stroke-linejoin="round" stroke-miterlimit="10" stroke-width="1"/>
            <path id="XMLID_433_" d="M239.6,571.5s8,19.6,1.1,26.7" fill="none" stroke="#3de06e" stroke-linecap="round" stroke-linejoin="round" stroke-miterlimit="10" stroke-width="1"/>
            <path id="XMLID_432_" d="M250.7,627.8s7.1,12,27.1,10.8" fill="none" stroke="#3de06e" stroke-linecap="round" stroke-linejoin="round" stroke-miterlimit="10" stroke-width="1"/>
            <path id="XMLID_431_" d="M264.3,653.3s2,12.1,21.6,14.9" fill="none" stroke="#3de06e" stroke-linecap="round" stroke-linejoin="round" stroke-miterlimit="10" stroke-width="1"/>
            <path id="XMLID_430_" d="M292,691.3c-.8-25.6-14.4-27.8-14-42.9.4-11.8-.1-23-14.4-31.6-24.7-14.8-35-30.2-40-62.9" fill="none" stroke="#3de06e" stroke-linecap="round" stroke-linejoin="round" stroke-miterlimit="10" stroke-width="1"/>
          </g>
        </g>
      </g>
    </g>
    <circle id="Ellipse_3" data-name="Ellipse 3" cx="40.5" cy="40.5" r="40.5" transform="translate(1116 1857)" fill="#ff913c"/>
    <text id="JAVA" transform="translate(1158.056 1905.748) rotate(-14)" font-size="25" font-family="BerlinSansFB-Reg, Berlin Sans FB"><tspan x="-27.557" y="0">JAVA</tspan></text>
    <ellipse id="Ellipse_4" data-name="Ellipse 4" cx="36" cy="37.5" rx="36" ry="37.5" transform="translate(1243 1687)" fill="#b368c3"/>
    <text id="C_" data-name="C++" transform="translate(1279 1733)" font-size="25" font-family="BerlinSansFB-Reg, Berlin Sans FB"><tspan x="-17.505" y="0">C++</tspan></text>
  </g>
</svg>
